<svg version="1.1" xmlns="http://www.w3.org/2000/svg" viewBox="0 0 263.57641213095235 172.59247208601823" width="263.57641213095235" height="172.59247208601823">
  <!-- svg-source:excalidraw -->
  <g stroke-linecap="round" transform="translate(47.57641213095235 77) rotate(0 81.5 14)"><path d="M7 0 L159.06 0.44 L161.25 1.75 L162.56 3.94 L162.56 24.06 L161.25 26.25 L159.06 27.56 L156 28 L3.94 27.56 L1.75 26.25 L0.44 24.06 L0 7 L0.44 3.94 L1.75 1.75 L3.94 0.44 L7 0" stroke="none" stroke-width="0" fill="#ffd8a8"></path><path d="M7 0 M7 0 C53.94 0, 100.87 0, 156 0 M7 0 C64.91 0, 122.83 0, 156 0 M156 0 C160.67 0, 163 2.33, 163 7 M156 0 C160.67 0, 163 2.33, 163 7 M163 7 C163 10.44, 163 13.88, 163 21 M163 7 C163 12.25, 163 17.51, 163 21 M163 21 C163 25.67, 160.67 28, 156 28 M163 21 C163 25.67, 160.67 28, 156 28 M156 28 C124.44 28, 92.88 28, 7 28 M156 28 C112.45 28, 68.91 28, 7 28 M7 28 C2.33 28, 0 25.67, 0 21 M7 28 C2.33 28, 0 25.67, 0 21 M0 21 C0 17.49, 0 13.97, 0 7 M0 21 C0 16.67, 0 12.34, 0 7 M0 7 C0 2.33, 2.33 0, 7 0 M0 7 C0 2.33, 2.33 0, 7 0" stroke="#ffd8a8" stroke-width="2" fill="none"></path></g><g stroke-linecap="round" transform="translate(173.57641213095235 10) rotate(0 40 30)"><path d="M80 30 C80 31.56, 79.83 33.15, 79.51 34.69 C79.18 36.24, 78.69 37.78, 78.04 39.27 C77.4 40.76, 76.59 42.23, 75.64 43.62 C74.69 45.01, 73.59 46.37, 72.36 47.63 C71.13 48.9, 69.76 50.11, 68.28 51.21 C66.81 52.32, 65.2 53.35, 63.51 54.27 C61.82 55.19, 60.02 56.02, 58.16 56.73 C56.3 57.44, 54.34 58.05, 52.36 58.53 C50.38 59.02, 48.32 59.39, 46.26 59.63 C44.2 59.88, 42.09 60, 40 60 C37.91 60, 35.8 59.88, 33.74 59.63 C31.68 59.39, 29.62 59.02, 27.64 58.53 C25.66 58.05, 23.7 57.44, 21.84 56.73 C19.98 56.02, 18.18 55.19, 16.49 54.27 C14.8 53.35, 13.19 52.32, 11.72 51.21 C10.24 50.11, 8.87 48.9, 7.64 47.63 C6.41 46.37, 5.31 45.01, 4.36 43.62 C3.41 42.23, 2.6 40.76, 1.96 39.27 C1.31 37.78, 0.82 36.24, 0.49 34.69 C0.17 33.15, 0 31.56, 0 30 C0 28.44, 0.17 26.85, 0.49 25.31 C0.82 23.76, 1.31 22.22, 1.96 20.73 C2.6 19.24, 3.41 17.77, 4.36 16.38 C5.31 14.99, 6.41 13.63, 7.64 12.37 C8.87 11.1, 10.24 9.89, 11.72 8.79 C13.19 7.68, 14.8 6.65, 16.49 5.73 C18.18 4.81, 19.98 3.98, 21.84 3.27 C23.7 2.56, 25.66 1.95, 27.64 1.47 C29.62 0.98, 31.68 0.61, 33.74 0.37 C35.8 0.12, 37.91 0, 40 0 C42.09 0, 44.2 0.12, 46.26 0.37 C48.32 0.61, 50.38 0.98, 52.36 1.47 C54.34 1.95, 56.3 2.56, 58.16 3.27 C60.02 3.98, 61.82 4.81, 63.51 5.73 C65.2 6.65, 66.81 7.68, 68.28 8.79 C69.76 9.89, 71.13 11.1, 72.36 12.37 C73.59 13.63, 74.69 14.99, 75.64 16.38 C76.59 17.77, 77.4 19.24, 78.04 20.73 C78.69 22.22, 79.18 23.76, 79.51 25.31 C79.83 26.85, 79.92 29.22, 80 30 C80.08 30.78, 80.08 29.22, 80 30" stroke="none" stroke-width="0" fill="#ffd8a8"></path><path d="M80 30 C80 31.56, 79.83 33.15, 79.51 34.69 C79.18 36.24, 78.69 37.78, 78.04 39.27 C77.4 40.76, 76.59 42.23, 75.64 43.62 C74.69 45.01, 73.59 46.37, 72.36 47.63 C71.13 48.9, 69.76 50.11, 68.28 51.21 C66.81 52.32, 65.2 53.35, 63.51 54.27 C61.82 55.19, 60.02 56.02, 58.16 56.73 C56.3 57.44, 54.34 58.05, 52.36 58.53 C50.38 59.02, 48.32 59.39, 46.26 59.63 C44.2 59.88, 42.09 60, 40 60 C37.91 60, 35.8 59.88, 33.74 59.63 C31.68 59.39, 29.62 59.02, 27.64 58.53 C25.66 58.05, 23.7 57.44, 21.84 56.73 C19.98 56.02, 18.18 55.19, 16.49 54.27 C14.8 53.35, 13.19 52.32, 11.72 51.21 C10.24 50.11, 8.87 48.9, 7.64 47.63 C6.41 46.37, 5.31 45.01, 4.36 43.62 C3.41 42.23, 2.6 40.76, 1.96 39.27 C1.31 37.78, 0.82 36.24, 0.49 34.69 C0.17 33.15, 0 31.56, 0 30 C0 28.44, 0.17 26.85, 0.49 25.31 C0.82 23.76, 1.31 22.22, 1.96 20.73 C2.6 19.24, 3.41 17.77, 4.36 16.38 C5.31 14.99, 6.41 13.63, 7.64 12.37 C8.87 11.1, 10.24 9.89, 11.72 8.79 C13.19 7.68, 14.8 6.65, 16.49 5.73 C18.18 4.81, 19.98 3.98, 21.84 3.27 C23.7 2.56, 25.66 1.95, 27.64 1.47 C29.62 0.98, 31.68 0.61, 33.74 0.37 C35.8 0.12, 37.91 0, 40 0 C42.09 0, 44.2 0.12, 46.26 0.37 C48.32 0.61, 50.38 0.98, 52.36 1.47 C54.34 1.95, 56.3 2.56, 58.16 3.27 C60.02 3.98, 61.82 4.81, 63.51 5.73 C65.2 6.65, 66.81 7.68, 68.28 8.79 C69.76 9.89, 71.13 11.1, 72.36 12.37 C73.59 13.63, 74.69 14.99, 75.64 16.38 C76.59 17.77, 77.4 19.24, 78.04 20.73 C78.69 22.22, 79.18 23.76, 79.51 25.31 C79.83 26.85, 79.92 29.22, 80 30 C80.08 30.78, 80.08 29.22, 80 30" stroke="#ffd8a8" stroke-width="2" fill="none"></path></g><g stroke-linecap="round" transform="translate(18.16919917431187 106.44117647058829) rotate(30.963756532073518 9.142507074287465 30)"><path d="M18.29 30 C18.29 31.74, 18.24 33.5, 18.15 35.21 C18.05 36.92, 17.91 38.63, 17.73 40.26 C17.55 41.89, 17.32 43.5, 17.06 45 C16.8 46.5, 16.49 47.95, 16.15 49.28 C15.81 50.61, 15.42 51.87, 15.02 52.98 C14.61 54.1, 14.17 55.11, 13.71 55.98 C13.26 56.85, 12.77 57.6, 12.27 58.19 C11.77 58.78, 11.25 59.24, 10.73 59.54 C10.21 59.85, 9.67 60, 9.14 60 C8.61 60, 8.08 59.85, 7.55 59.54 C7.03 59.24, 6.51 58.78, 6.02 58.19 C5.52 57.6, 5.03 56.85, 4.57 55.98 C4.11 55.11, 3.67 54.1, 3.27 52.98 C2.86 51.87, 2.48 50.61, 2.14 49.28 C1.8 47.95, 1.49 46.5, 1.22 45 C0.96 43.5, 0.73 41.89, 0.55 40.26 C0.37 38.63, 0.23 36.92, 0.14 35.21 C0.05 33.5, 0 31.74, 0 30 C0 28.26, 0.05 26.5, 0.14 24.79 C0.23 23.08, 0.37 21.37, 0.55 19.74 C0.73 18.11, 0.96 16.5, 1.22 15 C1.49 13.5, 1.8 12.05, 2.14 10.72 C2.48 9.39, 2.86 8.13, 3.27 7.02 C3.67 5.9, 4.11 4.89, 4.57 4.02 C5.03 3.15, 5.52 2.4, 6.02 1.81 C6.51 1.22, 7.03 0.76, 7.55 0.46 C8.08 0.15, 8.61 0, 9.14 0 C9.67 0, 10.21 0.15, 10.73 0.46 C11.25 0.76, 11.77 1.22, 12.27 1.81 C12.77 2.4, 13.26 3.15, 13.71 4.02 C14.17 4.89, 14.61 5.9, 15.02 7.02 C15.42 8.13, 15.81 9.39, 16.15 10.72 C16.49 12.05, 16.8 13.5, 17.06 15 C17.32 16.5, 17.55 18.11, 17.73 19.74 C17.91 21.37, 18.05 23.08, 18.15 24.79 C18.24 26.5, 18.26 29.13, 18.29 30 C18.31 30.87, 18.31 29.13, 18.29 30" stroke="none" stroke-width="0" fill="#ffd8a8"></path><path d="M18.29 30 C18.29 31.74, 18.24 33.5, 18.15 35.21 C18.05 36.92, 17.91 38.63, 17.73 40.26 C17.55 41.89, 17.32 43.5, 17.06 45 C16.8 46.5, 16.49 47.95, 16.15 49.28 C15.81 50.61, 15.42 51.87, 15.02 52.98 C14.61 54.1, 14.17 55.11, 13.71 55.98 C13.26 56.85, 12.77 57.6, 12.27 58.19 C11.77 58.78, 11.25 59.24, 10.73 59.54 C10.21 59.85, 9.67 60, 9.14 60 C8.61 60, 8.08 59.85, 7.55 59.54 C7.03 59.24, 6.51 58.78, 6.02 58.19 C5.52 57.6, 5.03 56.85, 4.57 55.98 C4.11 55.11, 3.67 54.1, 3.27 52.98 C2.86 51.87, 2.48 50.61, 2.14 49.28 C1.8 47.95, 1.49 46.5, 1.22 45 C0.96 43.5, 0.73 41.89, 0.55 40.26 C0.37 38.63, 0.23 36.92, 0.14 35.21 C0.05 33.5, 0 31.74, 0 30 C0 28.26, 0.05 26.5, 0.14 24.79 C0.23 23.08, 0.37 21.37, 0.55 19.74 C0.73 18.11, 0.96 16.5, 1.22 15 C1.49 13.5, 1.8 12.05, 2.14 10.72 C2.48 9.39, 2.86 8.13, 3.27 7.02 C3.67 5.9, 4.11 4.89, 4.57 4.02 C5.03 3.15, 5.52 2.4, 6.02 1.81 C6.51 1.22, 7.03 0.76, 7.55 0.46 C8.08 0.15, 8.61 0, 9.14 0 C9.67 0, 10.21 0.15, 10.73 0.46 C11.25 0.76, 11.77 1.22, 12.27 1.81 C12.77 2.4, 13.26 3.15, 13.71 4.02 C14.17 4.89, 14.61 5.9, 15.02 7.02 C15.42 8.13, 15.81 9.39, 16.15 10.72 C16.49 12.05, 16.8 13.5, 17.06 15 C17.32 16.5, 17.55 18.11, 17.73 19.74 C17.91 21.37, 18.05 23.08, 18.15 24.79 C18.24 26.5, 18.26 29.13, 18.29 30 C18.31 30.87, 18.31 29.13, 18.29 30" stroke="#ffd8a8" stroke-width="2" fill="none"></path></g></svg>